<svg xmlns="http://www.w3.org/2000/svg" viewBox="5.8081 -55.1367 9.3894 7.9878">
  <path d="M 9.9219 -54.9831 L 9.9396 -54.5966 L 10.9501 -54.3636 L 10.9395 -54.0087 L 11.9563 -54.1965 L 12.5184 -54.4704 L 13.6475 -54.0755 L 14.1197 -53.757 L 14.3533 -53.2482 L 14.0745 -52.9813 L 14.4376 -52.6249 L 14.685 -52.0899 L 14.6071 -51.7452 L 15.017 -51.1067 L 14.5707 -51.0023 L 14.307 -51.1173 L 14.0562 -50.9269 L 13.3381 -50.7332 L 12.9668 -50.4841 L 12.2401 -50.2663 L 12.4152 -49.9691 L 12.521 -49.5474 L 13.0313 -49.3071 L 13.5959 -48.8772 L 13.2434 -48.4161 L 12.8841 -48.2891 L 13.0259 -47.6376 L 12.9326 -47.4676 L 12.6208 -47.6724 L 12.1414 -47.7031 L 11.4264 -47.5238 L 10.5445 -47.5664 L 10.4021 -47.3025 L 9.8961 -47.5802 L 9.5942 -47.5251 L 8.5226 -47.8308 L 8.3173 -47.6136 L 7.4668 -47.6206 L 7.5937 -48.333 L 8.0993 -49.0178 L 6.6582 -49.202 L 6.1863 -49.4638 L 6.2428 -49.9022 L 6.0431 -50.1281 L 6.1567 -50.8037 L 5.9887 -51.8516 L 6.5894 -51.852 L 6.8429 -52.2284 L 7.0921 -53.144 L 6.9051 -53.4822 L 7.1004 -53.6939 L 7.9362 -53.7483 L 8.1217 -53.5278 L 8.8007 -54.0208 L 8.5721 -54.3956 L 8.5262 -54.9627 L 9.282 -54.8309 L 9.9219 -54.9831 Z" fill="#2563EB" stroke="#1E40AF" stroke-width="0.0799" />
</svg>